<?xml version="1.0" encoding="iso-8859-1"?>
<!-- Generator: Adobe Illustrator 19.0.0, SVG Export Plug-In . SVG Version: 6.00 Build 0)  -->
<svg version="1.1" id="Layer_1" xmlns="http://www.w3.org/2000/svg" xmlns:xlink="http://www.w3.org/1999/xlink" x="0px" y="0px"
	 viewBox="0 0 511.999 511.999" style="enable-background:new 0 0 511.999 511.999;" xml:space="preserve">
<g>
	<g>
		<path d="M402.739,111.314c-0.006-0.021-0.015-0.04-0.02-0.06c-0.694-2.506-2.724-4.534-5.227-5.228
			c-0.021-0.006-0.04-0.015-0.061-0.021c-23.262-6.511-49.008,0.639-66.003,17.634c-17.191,17.191-23.947,42.482-17.634,66.003
			c0.006,0.021,0.015,0.04,0.02,0.061c0.69,2.494,2.731,4.54,5.227,5.227c0.021,0.006,0.04,0.015,0.061,0.021
			c23.273,6.496,48.998-0.63,66.003-17.634C402.295,160.127,409.052,134.836,402.739,111.314z M326.497,171.621
			c0.09-13.84,5.556-27.358,15.556-37.358c9.986-9.985,23.248-15.505,37.369-15.567L326.497,171.621z M374.479,166.692
			c-9.987,9.986-23.25,15.506-37.369,15.567l52.924-52.924C389.945,143.174,384.478,156.692,374.479,166.692z"/>
	</g>
</g>
<g>
	<g>
		<path d="M351.034,377.164c-16.276-16.276-40.413-23.306-62.889-18.392c-3.663,0.8-7.282,1.967-8.402,6.007
			c-0.006,0.021-0.015,0.04-0.02,0.06c-6.313,23.522,0.444,48.813,17.634,66.003c12.773,12.774,30.383,19.851,48.235,19.933
			c8.449,0.038,21.372,0.093,23.695-10.104C374.44,418.049,367.451,393.58,351.034,377.164z M307.982,420.216
			c-9.999-9.999-15.466-23.516-15.556-37.357l52.924,52.924C331.23,435.72,317.966,430.201,307.982,420.216z M303.04,372.223
			c14.12,0.062,27.383,5.582,37.369,15.567c10,10,15.466,23.517,15.556,37.358L303.04,372.223z"/>
	</g>
</g>
<g>
	<g>
		<path d="M214.321,255.259c-17.089-17.089-42.67-23.898-66.003-17.633c-0.021,0.005-0.041,0.015-0.062,0.021
			c-2.474,0.685-4.541,2.751-5.226,5.227c-0.006,0.021-0.015,0.04-0.02,0.06c-6.313,23.523,0.443,48.813,17.633,66.004
			c17.061,17.061,42.708,23.887,66.003,17.634c0.021-0.006,0.041-0.015,0.062-0.021c2.497-0.687,4.537-2.734,5.226-5.228
			c0.006-0.021,0.015-0.039,0.02-0.06C238.267,297.741,231.51,272.45,214.321,255.259z M171.268,298.312
			c-9.999-9.999-15.466-23.516-15.556-37.357l52.924,52.924C194.515,313.817,181.254,308.298,171.268,298.312z M166.326,250.319
			c14.12,0.063,27.383,5.582,37.369,15.568c9.999,9.999,15.466,23.517,15.556,37.357L166.326,250.319z"/>
	</g>
</g>
<g>
	<g>
		<path d="M358.668,265.885l-2.604-2.605l1.672-3.281c3.482-6.833,3.199-14.766-0.756-21.222
			c-4.003-6.533-11.143-10.59-18.633-10.59c-3.439,0-6.796,0.822-9.978,2.443l-3.282,1.672l-2.604-2.605
			c-4.156-4.156-9.594-6.445-15.309-6.445c-6.389,0-12.692,2.912-16.859,7.791c-4.14,4.848-5.858,11.066-4.838,17.509l0.576,3.637
			l-3.281,1.672c-8.588,4.376-13.162,13.353-11.655,22.872c1.508,9.518,8.631,16.643,18.15,18.15l3.637,0.576l0.576,3.638
			c1.691,10.678,10.801,18.429,21.662,18.428c8.317-0.001,15.554-4.461,19.361-11.93l1.672-3.281c2.399,0,4.787,0.862,7.228,0.862
			c8.755-0.001,16.613-5.318,20.019-13.545C366.854,281.347,365.031,272.248,358.668,265.885z M342.162,288.049
			c-5.461-0.865-13.635-3.826-16.899,2.581c-2.219,4.355-4.09,11.869-10.121,11.869c-7.57,0.001-7.394-9.379-8.25-14.78
			c-1.101-6.952-9.884-6.821-15.275-7.676c-6.427-1.019-7.768-9.864-2.024-12.79c0,0,8.129-4.142,8.145-4.15
			c6.284-3.203,3.436-11.49,2.58-16.898c-0.661-4.176,2.622-7.923,6.854-7.923c4.419,0,8.279,5.638,11.149,8.508
			c2.301,2.301,5.823,2.859,8.724,1.381c5.003-2.549,12.696-8.762,17.122-1.542c2.811,4.586-1.882,10.597-3.97,14.694
			c-3.176,6.233,3.991,11.333,7.846,15.188C352.613,281.085,348.537,289.062,342.162,288.049z"/>
	</g>
</g>
<g>
	<g>
		<path d="M225.094,166.939l-3.281-1.671l0.576-3.636c1.021-6.444-0.697-12.663-4.838-17.51c-4.166-4.879-10.469-7.791-16.859-7.791
			c-5.716,0-11.153,2.289-15.309,6.445l-2.604,2.605l-3.282-1.672c-3.183-1.622-6.54-2.443-9.979-2.443
			c-7.49,0-14.63,4.058-18.632,10.59c-3.956,6.455-4.239,14.389-0.756,21.222l1.672,3.281l-2.604,2.605
			c-6.364,6.361-8.187,15.462-4.755,23.747c3.407,8.227,11.266,13.542,20.02,13.542c1.185,0,2.393-0.096,3.589-0.286l3.636-0.576
			l1.672,3.281c3.806,7.47,11.044,11.93,19.361,11.93c10.86,0,19.971-7.75,21.662-18.427l0.576-3.638l3.638-0.576
			c9.518-1.508,16.643-8.632,18.15-18.15C238.254,180.293,233.68,171.315,225.094,166.939z M216.245,193.118l-9.029,1.43
			c-3.215,0.51-5.736,3.03-6.245,6.245c0,0-1.429,9.019-1.431,9.029c-1.004,6.335-9.83,7.836-12.791,2.026
			c0,0-4.144-8.134-4.15-8.145c-1.458-2.86-4.703-4.508-7.868-4.01c-3.965,0.624-8.529,2.384-12.513,1.003
			c-4.649-1.611-5.813-7.692-2.394-11.11l6.464-6.465c2.301-2.301,2.859-5.823,1.381-8.724l-4.15-8.145
			c-1.438-2.822-0.696-5.118,0.18-6.548c1.903-3.107,5.725-4.267,8.977-2.61c0,0,8.128,4.141,8.146,4.15
			c6.336,3.229,11.282-3.941,15.187-7.846c2.859-2.859,7.49-2.596,10.117,0.479c1.274,1.493,1.753,3.31,1.422,5.4
			c-0.874,5.514-3.948,13.572,2.58,16.898l8.146,4.15C224.094,183.294,222.601,192.111,216.245,193.118z"/>
	</g>
</g>
<g>
	<g>
		<path d="M222.03,389.528l-3.281-1.672c1.221-7.709,1.083-14.889-4.262-21.147c-4.166-4.879-10.469-7.791-16.858-7.791
			c-7.484,0-12.872,4.007-17.914,9.049c-4.272-2.177-8.343-4.115-13.26-4.115c-7.49,0-14.629,4.058-18.633,10.59
			c-4.979,8.125-3.139,16.548,0.915,24.503c-7.27,7.27-11.601,16.107-7.357,26.352c3.407,8.227,11.266,13.543,20.02,13.543
			c2.429,0,4.836-0.483,7.227-0.862c4.39,8.616,10.668,15.21,21.032,15.21c13.025,0,20.372-10.29,22.237-22.063
			c10.777-1.707,19.938-7.047,21.788-18.726C235.192,402.881,230.618,393.903,222.03,389.528z M218.842,410.048
			c-0.181,1.147-1.126,4.942-5.659,5.659c-5.463,0.866-14.148,0.566-15.274,7.676c-0.864,5.454-0.547,14.778-8.248,14.779
			c-5.769,0.001-7.971-7.647-10.123-11.869c-1.45-2.846-4.714-4.511-7.87-4.01c-3.427,0-6.824,1.531-10.267,1.531
			c-3.222,0-5.282-2.204-6.136-4.267c-0.518-1.249-1.409-4.469,1.496-7.374c3.91-3.91,11.11-8.781,7.845-15.187l-4.15-8.145
			c-1.439-2.822-0.695-5.119,0.18-6.549c1.291-2.106,3.521-3.415,5.82-3.415c3.701,0,8.073,3.311,11.301,4.956
			c6.292,3.207,11.303-3.96,15.188-7.845c1.356-1.356,2.932-2.045,4.684-2.045c2.022,0,4.103,0.967,5.433,2.525
			c1.274,1.493,1.753,3.309,1.422,5.4l-1.43,9.029c-0.509,3.215,1.11,6.391,4.01,7.87l8.145,4.15
			C219.297,405,219.023,408.902,218.842,410.048z"/>
	</g>
</g>
<g>
	<g>
		<path d="M511.591,237.624L463.118,96.307c-0.661-1.926-2.076-3.502-3.92-4.366l-79.055-37.032l-30.085-37.934
			c-1.401-1.764-3.634-2.833-5.886-2.844c0,0-176.341,0-176.352,0c-2.236,0.006-4.485,1.091-5.876,2.843l-30.085,37.934
			L52.802,91.94c-1.844,0.864-3.259,2.44-3.92,4.366L0.407,237.625c-1.15,3.354,0.2,7.056,3.24,8.88l75.127,45.093
			c3.441,2.066,7.899,1.062,10.123-2.281l28.414-42.724c-1.772,28.812-4.423,75.987-6.003,123.329
			c-0.138,4.147,3.111,7.621,7.259,7.76c0.085,0.003,0.17,0.004,0.254,0.004c4.033,0,7.369-3.201,7.504-7.263
			c2.513-75.27,7.742-150.129,7.794-150.876c0.239-3.402-1.842-6.538-5.071-7.639c-3.229-1.101-6.792,0.112-8.68,2.951
			l-40.011,60.164l-63.764-38.272l8.168-23.811c2.87,0.365,5.761,0.568,8.659,0.568c18.221,0,35.35-7.094,48.228-19.972
			c17.191-17.19,23.947-42.481,17.634-66.003c-0.006-0.021-0.015-0.04-0.02-0.061c-0.692-2.499-2.729-4.536-5.227-5.228
			c-0.021-0.006-0.04-0.015-0.06-0.021c-12.627-3.27-25.923-3.102-38.383,0.839l6.471-18.867l73.544-34.45l23.02,18.381
			c3.242,2.589,7.97,2.06,10.56-1.183c2.59-3.243,2.06-7.97-1.183-10.56l-20.815-16.621l22.456-28.315l75.669,44.798l-27.138,40.2
			c0,0-26.534-21.187-26.54-21.192c-3.153-2.517-8-2.023-10.56,1.183c-2.52,3.157-2.027,7.997,1.183,10.56
			c0,0,32.87,26.246,32.901,26.271c3.342,2.669,8.528,1.867,10.915-1.668l22.413-33.2v384.373
			c-46.367-0.779-90.655-8.735-123.354-22.18c-0.284-16.999-0.166-37.22,0.35-60.201c0.093-4.148-3.194-7.587-7.343-7.68
			c-4.158-0.112-7.587,3.194-7.681,7.343c-0.564,25.112-0.654,46.989-0.27,65.038c-0.07,1.061,0.085,2.134,0.468,3.148
			c0.712,1.886,2.153,3.407,3.997,4.221c37.149,16.383,87.347,25.406,141.346,25.406c53.998,0,104.195-9.022,141.344-25.405
			c2.853-1.258,4.52-4.11,4.46-7.063c0.634-29.29,0.017-68.083-1.833-115.307c-0.162-4.146-3.671-7.38-7.802-7.213
			c-4.146,0.162-7.376,3.656-7.214,7.802c1.745,44.542,2.387,81.481,1.911,109.911c-32.698,13.445-76.988,21.4-123.354,22.18V98.401
			c0,0,22.405,33.188,22.413,33.2c2.415,3.578,7.539,4.36,10.915,1.667l79.553-63.521l73.543,34.45l15.402,44.902
			c-2.21-0.762-4.534-1.181-6.913-1.181c-6.389,0-12.693,2.912-16.859,7.791c-4.139,4.847-5.857,11.066-4.838,17.51l0.576,3.637
			l-3.281,1.672c-8.586,4.375-13.161,13.352-11.654,22.871c1.508,9.518,8.632,16.643,18.15,18.15l3.638,0.576l0.576,3.638
			c1.691,10.677,10.801,18.427,21.661,18.427c8.317,0,15.554-4.46,19.361-11.93l1.672-3.281l3.638,0.576
			c0.41,0.065,0.821,0.096,1.232,0.138l3.107,9.057l-63.763,38.272l-40.011-60.164c-1.888-2.839-5.45-4.051-8.68-2.951
			c-3.228,1.101-5.309,4.237-5.071,7.639c0.032,0.452,3.207,45.842,5.785,101.14c0.187,4.026,3.51,7.163,7.499,7.163
			c0.118,0,0.236-0.003,0.356-0.008c4.145-0.193,7.348-3.711,7.156-7.856c-1.341-28.762-2.844-54.862-3.984-73.391l28.412,42.722
			c2.223,3.342,6.68,4.347,10.123,2.281l75.126-45.093C511.391,244.68,512.742,240.977,511.591,237.624z M86.579,145.553
			c-0.09,13.84-5.557,27.358-15.556,37.358c-9.985,9.984-23.246,15.503-37.366,15.565L86.579,145.553z M75.967,134.915
			l-37.203,37.202c3.397-9.905,6.795-19.809,10.193-29.714C57.099,137.536,66.382,134.958,75.967,134.915z M256,65.111
			l-60.73-35.953h121.462L256,65.111z M293.826,116.446l-27.138-40.2l75.669-44.798l22.456,28.315L293.826,116.446z
			 M484.381,211.417c-3.184-0.122-6.238,0.688-7.862,3.876l-4.15,8.146c-2.948,5.785-11.779,4.358-12.791-2.027l-1.431-9.029
			c-0.509-3.215-3.029-5.736-6.245-6.245l-9.029-1.43c-6.435-1.02-7.767-9.864-2.026-12.79c3.993-2.036,9.668-3.628,11.592-8.131
			c1.604-3.755-0.254-9.054-0.867-12.918c-0.66-4.17,2.635-7.923,6.854-7.923c4.411,0,8.28,5.64,11.149,8.508
			c1.156,1.155,2.62,1.871,4.157,2.111l13.069,38.101C486,211.538,485.187,211.448,484.381,211.417z"/>
	</g>
</g>
<g>
</g>
<g>
</g>
<g>
</g>
<g>
</g>
<g>
</g>
<g>
</g>
<g>
</g>
<g>
</g>
<g>
</g>
<g>
</g>
<g>
</g>
<g>
</g>
<g>
</g>
<g>
</g>
<g>
</g>
</svg>
